<svg width="22" height="22" viewBox="0 0 22 22" fill="none" xmlns="http://www.w3.org/2000/svg">
<g clip-path="url(#clip0_1_259)">
<path d="M22 11.3507C22 5.55177 17.0751 0.850723 11 0.850723C4.92491 0.850723 0 5.55169 0 11.3507C0 16.5915 4.02256 20.9355 9.28125 21.7232V14.3859H6.48828V11.3507H9.28125V9.03744C9.28125 6.40588 10.9235 4.95229 13.4361 4.95229C14.6396 4.95229 15.8984 5.15736 15.8984 5.15736V7.74135H14.5114C13.1448 7.74135 12.7188 8.55075 12.7188 9.38115V11.3507H15.7695L15.2818 14.3859H12.7188V21.7232C17.9774 20.9355 22 16.5916 22 11.3507Z" fill="#1877F2"/>
<path d="M15.2818 14.3859L15.7695 11.3507H12.7188V9.38115C12.7188 8.55067 13.1449 7.74135 14.5114 7.74135H15.8984V5.15736C15.8984 5.15736 14.6396 4.95229 13.4361 4.95229C10.9235 4.95229 9.28125 6.40588 9.28125 9.03744V11.3507H6.48828V14.3859H9.28125V21.7232C9.84983 21.8082 10.4245 21.8509 11 21.8507C11.5755 21.8509 12.1502 21.8082 12.7188 21.7232V14.3859H15.2818Z" fill="white"/>
</g>
<defs>
<clipPath id="clip0_1_259">
<rect width="22" height="21" fill="white" transform="translate(0 0.850723)"/>
</clipPath>
</defs>
</svg>
