<svg width="24" height="25" viewBox="0 0 24 25" fill="none" xmlns="http://www.w3.org/2000/svg">
<path d="M12 2.35072C10.6868 2.35072 9.38642 2.60938 8.17317 3.11193C6.95991 3.61448 5.85752 4.35107 4.92893 5.27966C3.05357 7.15502 2 9.69856 2 12.3507C2 16.7707 4.87 20.5207 8.84 21.8507C9.34 21.9307 9.5 21.6207 9.5 21.3507V19.6607C6.73 20.2607 6.14 18.3207 6.14 18.3207C5.68 17.1607 5.03 16.8507 5.03 16.8507C4.12 16.2307 5.1 16.2507 5.1 16.2507C6.1 16.3207 6.63 17.2807 6.63 17.2807C7.5 18.8007 8.97 18.3507 9.54 18.1107C9.63 17.4607 9.89 17.0207 10.17 16.7707C7.95 16.5207 5.62 15.6607 5.62 11.8507C5.62 10.7407 6 9.85072 6.65 9.14072C6.55 8.89072 6.2 7.85072 6.75 6.50072C6.75 6.50072 7.59 6.23072 9.5 7.52072C10.29 7.30072 11.15 7.19072 12 7.19072C12.85 7.19072 13.71 7.30072 14.5 7.52072C16.41 6.23072 17.25 6.50072 17.25 6.50072C17.8 7.85072 17.45 8.89072 17.35 9.14072C18 9.85072 18.38 10.7407 18.38 11.8507C18.38 15.6707 16.04 16.5107 13.81 16.7607C14.17 17.0707 14.5 17.6807 14.5 18.6107V21.3507C14.5 21.6207 14.66 21.9407 15.17 21.8507C19.14 20.5107 22 16.7707 22 12.3507C22 11.0375 21.7413 9.73714 21.2388 8.52389C20.7362 7.31063 19.9997 6.20824 19.0711 5.27966C18.1425 4.35107 17.0401 3.61448 15.8268 3.11193C14.6136 2.60938 13.3132 2.35072 12 2.35072Z" fill="black"/>
</svg>
