<svg width="20" height="22" viewBox="0 0 20 22" fill="none" xmlns="http://www.w3.org/2000/svg">
<g clip-path="url(#clip0_1_262)">
<path d="M19.9905 11.5472C19.9905 10.6868 19.9224 10.059 19.7752 9.4079H10.1992V13.2911H15.8201C15.7068 14.2562 15.0948 15.7095 13.7349 16.6861L13.7159 16.8161L16.7436 19.2225L16.9534 19.244C18.8798 17.4186 19.9905 14.7328 19.9905 11.5472Z" fill="#4285F4"/>
<path d="M10.1992 21.7786C12.953 21.7786 15.2648 20.8484 16.9534 19.244L13.7349 16.6861C12.8737 17.3023 11.7177 17.7325 10.1992 17.7325C7.50211 17.7325 5.21297 15.9072 4.39695 13.3842L4.27734 13.3946L1.12906 15.8943L1.08789 16.0118C2.76508 19.4299 6.21016 21.7786 10.1992 21.7786Z" fill="#34A853"/>
<path d="M4.39695 13.3842C4.18164 12.7331 4.05703 12.0355 4.05703 11.3147C4.05703 10.5938 4.18164 9.8962 4.38563 9.24512L4.37992 9.10645L1.19219 6.56657L1.08789 6.61747C0.396641 8.03593 0 9.62881 0 11.3147C0 13.0005 0.396641 14.5933 1.08789 16.0118L4.39695 13.3842Z" fill="#FBBC05"/>
<path d="M10.1992 4.89675C12.1144 4.89675 13.4063 5.74549 14.1429 6.45476L17.0213 3.57135C15.2535 1.88549 12.953 0.850723 10.1992 0.850723C6.21016 0.850723 2.76508 3.19928 1.08789 6.61747L4.38563 9.24511C5.21297 6.72215 7.50211 4.89675 10.1992 4.89675Z" fill="#EB4335"/>
</g>
<defs>
<clipPath id="clip0_1_262">
<rect width="20" height="21" fill="white" transform="translate(0 0.850723)"/>
</clipPath>
</defs>
</svg>
