<svg width="11" height="15" viewBox="0 0 11 15" fill="none" xmlns="http://www.w3.org/2000/svg">
<path d="M5.72869 9.64175V10.9751M2.60611 13.6418H8.85127C9.12732 13.6418 9.39207 13.5013 9.58727 13.2512C9.78247 13.0012 9.89213 12.662 9.89213 12.3084V8.30842C9.89213 7.9548 9.78247 7.61566 9.58727 7.36561C9.39207 7.11556 9.12732 6.97509 8.85127 6.97509H2.60611C2.33005 6.97509 2.06531 7.11556 1.87011 7.36561C1.67491 7.61566 1.56525 7.9548 1.56525 8.30842V12.3084C1.56525 12.662 1.67491 13.0012 1.87011 13.2512C2.06531 13.5013 2.33005 13.6418 2.60611 13.6418ZM7.81041 6.97509V4.30842C7.81041 3.60118 7.59109 2.9229 7.20069 2.4228C6.81029 1.92271 6.2808 1.64175 5.72869 1.64175C5.17658 1.64175 4.64709 1.92271 4.25669 2.4228C3.86629 2.9229 3.64697 3.60118 3.64697 4.30842V6.97509H7.81041Z" stroke="#CECECE" stroke-width="1.5" stroke-linecap="round" stroke-linejoin="round"/>
</svg>
