<svg id="visual" viewBox="0 0 960 540" width="960" height="540" xmlns="http://www.w3.org/2000/svg" xmlns:xlink="http://www.w3.org/1999/xlink" version="1.1"><g stroke-width="1" stroke-linejoin="bevel"><path d="M510.3 253L520.3 144L456.7 162Z" fill="#13203b" stroke="#13203b"></path><path d="M456.7 162L393.7 251L510.3 253Z" fill="#121e38" stroke="#121e38"></path><path d="M520.3 144L414.7 108L456.7 162Z" fill="#101b32" stroke="#101b32"></path><path d="M456.7 162L351 174L393.7 251Z" fill="#111c34" stroke="#111c34"></path><path d="M510.3 253L645 180L520.3 144Z" fill="#121e38" stroke="#121e38"></path><path d="M520.3 144L566.3 54L414.7 108Z" fill="#0f1a2f" stroke="#0f1a2f"></path><path d="M414.7 108L351 174L456.7 162Z" fill="#101a31" stroke="#101a31"></path><path d="M645 180L566.3 54L520.3 144Z" fill="#111c34" stroke="#111c34"></path><path d="M351 174L358 275L393.7 251Z" fill="#121d36" stroke="#121d36"></path><path d="M463.7 390L541.3 374L510.3 253Z" fill="#0f192e" stroke="#0f192e"></path><path d="M510.3 253L669 239L645 180Z" fill="#13203b" stroke="#13203b"></path><path d="M541.3 374L669 239L510.3 253Z" fill="#14213d" stroke="#14213d"></path><path d="M463.7 390L510.3 253L393.7 251Z" fill="#14213d" stroke="#14213d"></path><path d="M721.7 109L658 84L645 180Z" fill="#13203b" stroke="#13203b"></path><path d="M645 180L658 84L566.3 54Z" fill="#14213d" stroke="#14213d"></path><path d="M358 275L463.7 390L393.7 251Z" fill="#101b32" stroke="#101b32"></path><path d="M642 0L570.3 0L566.3 54Z" fill="#111c34" stroke="#111c34"></path><path d="M566.3 54L397.7 0L414.7 108Z" fill="#111c34" stroke="#111c34"></path><path d="M570.3 0L397.7 0L566.3 54Z" fill="#0e182c" stroke="#0e182c"></path><path d="M414.7 108L284 115L351 174Z" fill="#101b32" stroke="#101b32"></path><path d="M237.3 265L315 329L358 275Z" fill="#14213d" stroke="#14213d"></path><path d="M358 275L315 329L463.7 390Z" fill="#121d36" stroke="#121d36"></path><path d="M397.7 0L284 115L414.7 108Z" fill="#0f192e" stroke="#0f192e"></path><path d="M351 174L237.3 265L358 275Z" fill="#0f1a2f" stroke="#0f1a2f"></path><path d="M780.7 203L721.7 109L645 180Z" fill="#111c34" stroke="#111c34"></path><path d="M658 84L642 0L566.3 54Z" fill="#0f1a2f" stroke="#0f1a2f"></path><path d="M708.7 0L642 0L658 84Z" fill="#14213d" stroke="#14213d"></path><path d="M645 481L667 386L541.3 374Z" fill="#0f192e" stroke="#0f192e"></path><path d="M541.3 374L667 386L669 239Z" fill="#0f1a2f" stroke="#0f1a2f"></path><path d="M669 239L780.7 203L645 180Z" fill="#131f39" stroke="#131f39"></path><path d="M773.7 332L749.7 252L669 239Z" fill="#121d36" stroke="#121d36"></path><path d="M315 329L413.7 443L463.7 390Z" fill="#111c34" stroke="#111c34"></path><path d="M463.7 390L496.3 471L541.3 374Z" fill="#101a31" stroke="#101a31"></path><path d="M284 115L235.3 172L351 174Z" fill="#0f192e" stroke="#0f192e"></path><path d="M235.3 172L237.3 265L351 174Z" fill="#111c34" stroke="#111c34"></path><path d="M315 329L289 430L413.7 443Z" fill="#0f1a2f" stroke="#0f1a2f"></path><path d="M413.7 443L496.3 471L463.7 390Z" fill="#121e38" stroke="#121e38"></path><path d="M884.3 266L780.7 203L749.7 252Z" fill="#14213d" stroke="#14213d"></path><path d="M749.7 252L780.7 203L669 239Z" fill="#121e38" stroke="#121e38"></path><path d="M817.3 89L708.7 0L721.7 109Z" fill="#101b32" stroke="#101b32"></path><path d="M721.7 109L708.7 0L658 84Z" fill="#131f39" stroke="#131f39"></path><path d="M397.7 0L289 0L284 115Z" fill="#0f192e" stroke="#0f192e"></path><path d="M284 115L198.3 99L235.3 172Z" fill="#121e38" stroke="#121e38"></path><path d="M667 386L773.7 332L669 239Z" fill="#111c34" stroke="#111c34"></path><path d="M225.3 398L289 430L315 329Z" fill="#131f39" stroke="#131f39"></path><path d="M453.7 540L543.3 540L496.3 471Z" fill="#111c34" stroke="#111c34"></path><path d="M289 0L198.3 99L284 115Z" fill="#121d36" stroke="#121d36"></path><path d="M235.3 172L123.7 143L237.3 265Z" fill="#111c34" stroke="#111c34"></path><path d="M496.3 471L645 481L541.3 374Z" fill="#13203b" stroke="#13203b"></path><path d="M667 386L783.7 414L773.7 332Z" fill="#131f39" stroke="#131f39"></path><path d="M780.7 203L817.3 89L721.7 109Z" fill="#14213d" stroke="#14213d"></path><path d="M860.3 164L817.3 89L780.7 203Z" fill="#121d36" stroke="#121d36"></path><path d="M112.7 343L225.3 398L237.3 265Z" fill="#121d36" stroke="#121d36"></path><path d="M237.3 265L225.3 398L315 329Z" fill="#131f39" stroke="#131f39"></path><path d="M453.7 540L496.3 471L413.7 443Z" fill="#121d36" stroke="#121d36"></path><path d="M496.3 471L543.3 540L645 481Z" fill="#13203b" stroke="#13203b"></path><path d="M310 540L413.7 443L289 430Z" fill="#0f192e" stroke="#0f192e"></path><path d="M310 540L453.7 540L413.7 443Z" fill="#101b32" stroke="#101b32"></path><path d="M289 0L207.3 0L198.3 99Z" fill="#13203b" stroke="#13203b"></path><path d="M645 481L783.7 414L667 386Z" fill="#0f1a2f" stroke="#0f1a2f"></path><path d="M884.3 266L860.3 164L780.7 203Z" fill="#121e38" stroke="#121e38"></path><path d="M713.7 540L783.7 414L645 481Z" fill="#111c34" stroke="#111c34"></path><path d="M884.3 266L749.7 252L773.7 332Z" fill="#14213d" stroke="#14213d"></path><path d="M543.3 540L621 540L645 481Z" fill="#0e182c" stroke="#0e182c"></path><path d="M207.3 0L144.7 99L198.3 99Z" fill="#14213d" stroke="#14213d"></path><path d="M198.3 99L123.7 143L235.3 172Z" fill="#121d36" stroke="#121d36"></path><path d="M884.3 448L828.3 390L783.7 414Z" fill="#121d36" stroke="#121d36"></path><path d="M783.7 414L828.3 390L773.7 332Z" fill="#101b32" stroke="#101b32"></path><path d="M144.7 99L123.7 143L198.3 99Z" fill="#0e182c" stroke="#0e182c"></path><path d="M225.3 398L246.3 481L289 430Z" fill="#131f39" stroke="#131f39"></path><path d="M134.7 445L246.3 481L225.3 398Z" fill="#121e38" stroke="#121e38"></path><path d="M960 0L831.3 0L817.3 89Z" fill="#13203b" stroke="#13203b"></path><path d="M817.3 89L831.3 0L708.7 0Z" fill="#121d36" stroke="#121d36"></path><path d="M828.3 390L884.3 266L773.7 332Z" fill="#0e182c" stroke="#0e182c"></path><path d="M860.3 164L960 127L817.3 89Z" fill="#131f39" stroke="#131f39"></path><path d="M246.3 481L310 540L289 430Z" fill="#101b32" stroke="#101b32"></path><path d="M621 540L713.7 540L645 481Z" fill="#121e38" stroke="#121e38"></path><path d="M75.7 280L112.7 343L237.3 265Z" fill="#121d36" stroke="#121d36"></path><path d="M123.7 143L75.7 280L237.3 265Z" fill="#111c34" stroke="#111c34"></path><path d="M0 379L134.7 445L112.7 343Z" fill="#0f192e" stroke="#0f192e"></path><path d="M112.7 343L134.7 445L225.3 398Z" fill="#121d36" stroke="#121d36"></path><path d="M246.3 481L179.3 540L310 540Z" fill="#111c34" stroke="#111c34"></path><path d="M884.3 540L884.3 448L783.7 414Z" fill="#13203b" stroke="#13203b"></path><path d="M828.3 390L960 357L884.3 266Z" fill="#0e182c" stroke="#0e182c"></path><path d="M960 257L960 196L884.3 266Z" fill="#0e182c" stroke="#0e182c"></path><path d="M884.3 266L960 196L860.3 164Z" fill="#121d36" stroke="#121d36"></path><path d="M960 357L960 257L884.3 266Z" fill="#0f1a2f" stroke="#0f1a2f"></path><path d="M960 196L960 127L860.3 164Z" fill="#0f1a2f" stroke="#0f1a2f"></path><path d="M134.7 445L179.3 540L246.3 481Z" fill="#131f39" stroke="#131f39"></path><path d="M144.7 99L0 94L123.7 143Z" fill="#0f1a2f" stroke="#0f1a2f"></path><path d="M123.7 143L0 203L75.7 280Z" fill="#0f1a2f" stroke="#0f1a2f"></path><path d="M207.3 0L69.7 0L144.7 99Z" fill="#101b32" stroke="#101b32"></path><path d="M884.3 448L960 357L828.3 390Z" fill="#13203b" stroke="#13203b"></path><path d="M960 127L960 0L817.3 89Z" fill="#0f1a2f" stroke="#0f1a2f"></path><path d="M75.7 280L0 379L112.7 343Z" fill="#131f39" stroke="#131f39"></path><path d="M134.7 445L117.7 540L179.3 540Z" fill="#101a31" stroke="#101a31"></path><path d="M0 94L0 203L123.7 143Z" fill="#121d36" stroke="#121d36"></path><path d="M0 203L0 263L75.7 280Z" fill="#111c34" stroke="#111c34"></path><path d="M960 540L960 421L884.3 448Z" fill="#0e182c" stroke="#0e182c"></path><path d="M884.3 448L960 421L960 357Z" fill="#0f1a2f" stroke="#0f1a2f"></path><path d="M69.7 0L0 94L144.7 99Z" fill="#0f192e" stroke="#0f192e"></path><path d="M0 448L117.7 540L134.7 445Z" fill="#0f192e" stroke="#0f192e"></path><path d="M713.7 540L884.3 540L783.7 414Z" fill="#101a31" stroke="#101a31"></path><path d="M0 263L0 379L75.7 280Z" fill="#121d36" stroke="#121d36"></path><path d="M69.7 0L0 0L0 94Z" fill="#0f192e" stroke="#0f192e"></path><path d="M0 379L0 448L134.7 445Z" fill="#0f192e" stroke="#0f192e"></path><path d="M884.3 540L960 540L884.3 448Z" fill="#0f192e" stroke="#0f192e"></path><path d="M0 448L0 540L117.7 540Z" fill="#101a31" stroke="#101a31"></path></g></svg>