<svg width="182" height="39" viewBox="0 0 182 39" fill="none" xmlns="http://www.w3.org/2000/svg">
<path d="M23.0394 29.6832C23.0394 29.9827 22.9804 30.2608 22.8625 30.5175C22.7554 30.7742 22.6053 30.9989 22.4124 31.1914C22.2302 31.3733 22.0104 31.5177 21.7532 31.6246C21.4959 31.7316 21.2226 31.7851 20.9332 31.7851C20.676 31.7851 20.4134 31.737 20.1454 31.6407C19.8882 31.5444 19.6577 31.3893 19.4541 31.1754L4.18021 15.2584V31.4642H0V10.2363C0 9.80838 0.117903 9.4233 0.35371 9.081C0.600236 8.728 0.911072 8.46593 1.28622 8.29478C1.6828 8.13432 2.09011 8.09688 2.50813 8.18246C2.92615 8.25734 3.28522 8.44988 3.58534 8.76009L18.8592 24.661V8.45523H23.0394V29.6832Z" fill="#FCA311"/>
<path d="M31.6892 10.5572H27.509V6.78652H31.6892V10.5572ZM31.6892 31.4642H27.509V14.1192H31.6892V31.4642Z" fill="#FCA311"/>
<path d="M97.4472 25.6077C97.4472 26.3243 97.3561 26.9715 97.1739 27.5491C96.9916 28.1161 96.7505 28.6188 96.4504 29.0574C96.1502 29.4853 95.8019 29.8543 95.4053 30.1645C95.0087 30.464 94.5907 30.7101 94.1512 30.9026C93.7225 31.0951 93.283 31.2396 92.8329 31.3358C92.3934 31.4214 91.9754 31.4642 91.5788 31.4642H84.0383C83.4595 31.4642 82.8272 31.3626 82.1412 31.1593C81.4552 30.9561 80.8174 30.6245 80.2279 30.1645C79.6491 29.6939 79.1614 29.0895 78.7648 28.3514C78.379 27.6026 78.186 26.688 78.186 25.6077V19.9597C78.186 18.89 78.379 17.9861 78.7648 17.2481C79.1614 16.4993 79.6491 15.8949 80.2279 15.4349C80.8174 14.9643 81.4552 14.6273 82.1412 14.4241C82.8272 14.2208 83.4595 14.1192 84.0383 14.1192H91.5788C92.6506 14.1192 93.5617 14.3118 94.312 14.6969C95.0623 15.0819 95.6679 15.5686 96.1288 16.157C96.5897 16.7346 96.922 17.3657 97.1256 18.0503C97.34 18.7349 97.4472 19.3714 97.4472 19.9597V25.6077ZM93.267 19.9918C93.267 19.4142 93.1223 18.9863 92.8329 18.7082C92.5435 18.4301 92.1254 18.291 91.5788 18.291H84.0705C83.5131 18.291 83.0898 18.4354 82.8004 18.7242C82.511 19.0023 82.3663 19.4142 82.3663 19.9597V25.6077C82.3663 26.1532 82.511 26.5704 82.8004 26.8592C83.0898 27.148 83.5131 27.2924 84.0705 27.2924H91.5788C92.1469 27.2924 92.5703 27.148 92.8489 26.8592C93.1276 26.5704 93.267 26.1532 93.267 25.6077V19.9918Z" fill="#FCA311"/>
<path d="M120.085 25.6077C120.085 26.3243 119.994 26.9715 119.811 27.5491C119.629 28.1161 119.388 28.6188 119.088 29.0574C118.788 29.4853 118.439 29.8543 118.043 30.1645C117.646 30.464 117.228 30.7101 116.789 30.9026C116.36 31.0951 115.92 31.2396 115.47 31.3358C115.031 31.4214 114.613 31.4642 114.216 31.4642H106.676C105.958 31.4642 105.315 31.3733 104.746 31.1914C104.178 31.0096 103.675 30.7689 103.235 30.4694C102.806 30.1592 102.437 29.8062 102.126 29.4104C101.826 29.0146 101.579 28.6028 101.386 28.1749C101.193 27.7363 101.049 27.2978 100.952 26.8592C100.866 26.4099 100.824 25.9927 100.824 25.6077V19.9597C100.824 18.89 101.016 17.9861 101.402 17.2481C101.799 16.4993 102.287 15.8949 102.865 15.4349C103.455 14.9643 104.093 14.6273 104.779 14.4241C105.465 14.2208 106.097 14.1192 106.676 14.1192H114.216V18.291H106.708C106.151 18.291 105.727 18.4354 105.438 18.7242C105.148 19.0023 105.004 19.4142 105.004 19.9597V25.5756C105.004 26.1425 105.143 26.5704 105.422 26.8592C105.711 27.148 106.129 27.2924 106.676 27.2924H114.216C114.784 27.2924 115.208 27.148 115.486 26.8592C115.765 26.5704 115.904 26.1532 115.904 25.6077V6.78652H120.085V25.6077Z" fill="#FCA311"/>
<path d="M142.77 19.8634C142.77 20.4411 142.668 21.0668 142.465 21.7407C142.261 22.4039 141.929 23.0244 141.468 23.602C141.018 24.1689 140.423 24.6449 139.683 25.03C138.955 25.4151 138.065 25.6077 137.014 25.6077H129.474V21.6445H137.014C137.583 21.6445 138.022 21.4733 138.333 21.131C138.644 20.778 138.799 20.3448 138.799 19.8313C138.799 19.2858 138.622 18.8579 138.269 18.5477C137.926 18.2375 137.508 18.0824 137.014 18.0824H129.474C128.906 18.0824 128.466 18.2589 128.156 18.6119C127.845 18.9542 127.689 19.3821 127.689 19.8955V25.72C127.689 26.2762 127.861 26.7094 128.204 27.0196C128.558 27.3298 128.992 27.485 129.506 27.485H137.014V31.4642H129.474C128.895 31.4642 128.268 31.3626 127.593 31.1593C126.928 30.9561 126.307 30.6298 125.728 30.1806C125.16 29.7206 124.683 29.1269 124.297 28.3995C123.911 27.6614 123.718 26.7683 123.718 25.72V19.8634C123.718 19.2858 123.82 18.6654 124.024 18.0022C124.227 17.3283 124.554 16.7079 125.004 16.1409C125.465 15.5633 126.06 15.0819 126.789 14.6969C127.529 14.3118 128.424 14.1192 129.474 14.1192H137.014C137.593 14.1192 138.215 14.2208 138.88 14.4241C139.555 14.6273 140.176 14.9589 140.745 15.4189C141.323 15.8682 141.806 16.4618 142.192 17.1999C142.577 17.9273 142.77 18.8151 142.77 19.8634Z" fill="#FCA311"/>
<path d="M148.365 29.3623C148.365 29.6511 148.306 29.9238 148.189 30.1806C148.081 30.4266 147.931 30.6459 147.738 30.8384C147.556 31.0203 147.336 31.1647 147.079 31.2716C146.833 31.3786 146.57 31.4321 146.291 31.4321C146.002 31.4321 145.729 31.3786 145.471 31.2716C145.225 31.1647 145.005 31.0203 144.812 30.8384C144.63 30.6459 144.485 30.4266 144.378 30.1806C144.271 29.9238 144.217 29.6511 144.217 29.3623C144.217 29.0841 144.271 28.8221 144.378 28.576C144.485 28.3193 144.63 28.1 144.812 27.9182C145.005 27.7256 145.225 27.5759 145.471 27.4689C145.729 27.3512 146.002 27.2924 146.291 27.2924C146.57 27.2924 146.833 27.3512 147.079 27.4689C147.336 27.5759 147.556 27.7256 147.738 27.9182C147.931 28.1 148.081 28.3193 148.189 28.576C148.306 28.8221 148.365 29.0841 148.365 29.3623Z" fill="#FCA311"/>
<path d="M170.794 25.6077C170.794 26.3243 170.703 26.9715 170.52 27.5491C170.338 28.1161 170.097 28.6188 169.797 29.0574C169.497 29.4853 169.149 29.8543 168.752 30.1645C168.355 30.464 167.937 30.7101 167.498 30.9026C167.069 31.0951 166.635 31.2396 166.196 31.3358C165.756 31.4214 165.338 31.4642 164.942 31.4642H157.401V27.2924H164.942C165.499 27.2924 165.917 27.148 166.196 26.8592C166.474 26.5704 166.614 26.1532 166.614 25.6077V19.9918C166.614 19.4142 166.469 18.9863 166.18 18.7082C165.901 18.4301 165.488 18.291 164.942 18.291H157.433C156.865 18.291 156.436 18.4354 156.147 18.7242C155.858 19.0023 155.713 19.4142 155.713 19.9597V36.8875H151.533V19.9597C151.533 19.243 151.624 18.6012 151.806 18.0343C151.988 17.4673 152.229 16.9699 152.53 16.5421C152.84 16.1035 153.194 15.7344 153.591 15.4349C153.987 15.1247 154.4 14.8733 154.829 14.6808C155.268 14.4883 155.708 14.3492 156.147 14.2636C156.597 14.1674 157.015 14.1192 157.401 14.1192H164.942C165.66 14.1192 166.303 14.2101 166.871 14.392C167.439 14.5738 167.937 14.8145 168.366 15.114C168.806 15.4135 169.175 15.7612 169.475 16.157C169.786 16.5528 170.038 16.9699 170.231 17.4085C170.424 17.8364 170.563 18.2696 170.649 18.7082C170.746 19.1467 170.794 19.5639 170.794 19.9597V25.6077Z" fill="#FCA311"/>
<path d="M182 31.4642H180.135C179.535 31.4642 178.892 31.3626 178.206 31.1593C177.53 30.9561 176.898 30.6245 176.308 30.1645C175.719 29.6939 175.231 29.0895 174.845 28.3514C174.46 27.6026 174.267 26.688 174.267 25.6077V6.78652H178.447V25.6077C178.447 26.1211 178.608 26.5329 178.929 26.8431C179.251 27.1427 179.653 27.2924 180.135 27.2924H182V31.4642Z" fill="#FCA311"/>
<path d="M65.9966 13.8014L56.1356 8.11964L46.2672 13.8057V25.1777L56.1356 30.8637L66.004 25.1777V25.1774L61.9382 22.8348V22.8351L56.1356 26.1785L50.333 22.8351V16.1483L56.1356 12.8049L61.9308 16.144L65.9966 13.8014Z" fill="#FCA311"/>
<path fill-rule="evenodd" clip-rule="evenodd" d="M73.0685 9.75L56.1468 0L39.2252 9.75V29.25L56.1468 39L73.0685 29.25V9.75ZM68.9233 12.1283L56.124 4.75352L43.3247 12.1283V26.8778L56.124 34.2526L68.9233 26.8778V12.1283Z" fill="#FCA311"/>
</svg>
